HIERARCHY
ROOT Hips
{
	OFFSET 0.000000 0.000000 0.000000
	CHANNELS 6 Xposition Yposition Zposition Zrotation Yrotation Xrotation 
	JOINT LeftUpLeg_virtual
	{
		OFFSET 0.000000 0.000000 0.000000
		CHANNELS 3 Zrotation Yrotation Xrotation
		JOINT LeftUpLeg
		{
			OFFSET 10.205400 -3.823500 0.155100
			CHANNELS 3 Zrotation Yrotation Xrotation
			JOINT LeftLeg
			{
				OFFSET 0.708757 -12.982077 0.567790
				CHANNELS 3 Zrotation Yrotation Xrotation
				JOINT LeftFoot
				{
					OFFSET -0.708756 -10.717838 -2.184338
					CHANNELS 3 Zrotation Yrotation Xrotation
					JOINT LeftToeBase
					{
						OFFSET 0.108149 -7.191104 7.560241
						CHANNELS 3 Zrotation Yrotation Xrotation
						End Site
						{
							OFFSET 0.000000 0.000000 0.000000
						}
					}
				}
			}
		}
	}
	JOINT RightUpLeg_virtual
	{
		OFFSET 0.000000 0.000000 0.000000
		CHANNELS 3 Zrotation Yrotation Xrotation
		JOINT RightUpLeg
		{
			OFFSET -10.205400 -3.823500 0.005500
			CHANNELS 3 Zrotation Yrotation Xrotation
			JOINT RightLeg
			{
				OFFSET -0.708756 -12.982134 0.610632
				CHANNELS 3 Zrotation Yrotation Xrotation
				JOINT RightFoot
				{
					OFFSET 0.708754 -10.717769 -1.945823
					CHANNELS 3 Zrotation Yrotation Xrotation
					JOINT RightToeBase
					{
						OFFSET -0.108140 -7.191069 7.372968
						CHANNELS 3 Zrotation Yrotation Xrotation
						End Site
						{
							OFFSET 0.000000 0.000000 0.000000
						}
					}
				}
			}
		}
	}
	JOINT Spine_virtual
	{
		OFFSET 0.000000 0.000000 0.000000
		CHANNELS 3 Zrotation Yrotation Xrotation
		JOINT Spine
		{
			OFFSET 0.000000 6.876099 0.125700
			CHANNELS 3 Zrotation Yrotation Xrotation
			JOINT Spine1
			{
				OFFSET 0.000000 8.022060 0.146608
				CHANNELS 3 Zrotation Yrotation Xrotation
				JOINT Spine2
				{
					OFFSET 0.000000 9.168068 0.167552
					CHANNELS 3 Zrotation Yrotation Xrotation
					JOINT Neck_virtual
					{
						OFFSET 0.000000 0.000000 0.000000
						CHANNELS 3 Zrotation Yrotation Xrotation
						JOINT Neck
						{
							OFFSET 0.000000 10.314075 0.188496
							CHANNELS 3 Zrotation Yrotation Xrotation
							JOINT Head
							{
								OFFSET 0.000000 7.643700 -2.377400
								CHANNELS 3 Zrotation Yrotation Xrotation
								End Site
								{
									OFFSET 0.000000 0.000000 0.000000
								}
							}
						}
					}
					JOINT LeftShoulder_virtual
					{
						OFFSET 0.000000 0.000000 0.000000
						CHANNELS 3 Zrotation Yrotation Xrotation
						JOINT LeftShoulder
						{
							OFFSET 4.392200 8.824978 0.174984
							CHANNELS 3 Zrotation Yrotation Xrotation
							JOINT LeftArm
							{
								OFFSET 8.771219 -2.981674 -0.026999
								CHANNELS 3 Zrotation Yrotation Xrotation
								JOINT LeftForeArm
								{
									OFFSET 8.512804 0.000000 -0.000000
									CHANNELS 3 Zrotation Yrotation Xrotation
									JOINT LeftHand
									{
										OFFSET 18.484802 0.000000 -0.000000
										CHANNELS 3 Zrotation Yrotation Xrotation
										End Site
										{
											OFFSET 0.000000 0.000000 0.000000
										}
									}
								}
							}
						}
					}
					JOINT RightShoulder_virtual
					{
						OFFSET 0.000000 0.000000 0.000000
						CHANNELS 3 Zrotation Yrotation Xrotation
						JOINT RightShoulder
						{
							OFFSET -4.392200 8.824993 0.141379
							CHANNELS 3 Zrotation Yrotation Xrotation
							JOINT RightArm
							{
								OFFSET -8.771282 -2.981682 -0.094208
								CHANNELS 3 Zrotation Yrotation Xrotation
								JOINT RightForeArm
								{
									OFFSET -8.494598 0.000000 0.000000
									CHANNELS 3 Zrotation Yrotation Xrotation
									JOINT RightHand
									{
										OFFSET -18.483803 0.000000 0.000001
										CHANNELS 3 Zrotation Yrotation Xrotation
										End Site
										{
											OFFSET 0.000000 0.000000 0.000000
										}
									}
								}
							}
						}
					}
				}
			}
		}
	}
}
MOTION
Frames: 8
Frame Time: 0.033333
7.775118 35.770744 75.671516 -179.916636 -1.686861 179.987547 -2.717242 -0.524687 10.812964 14.034887 3.654921 -16.329828 9.415373 3.215041 20.532635 -1.095767 3.419019 19.960796 0.000000 0.000000 0.000000 3.063528 0.714547 9.377919 -6.801764 -1.493321 -26.396111 -5.597323 2.106431 24.249511 3.999418 8.899407 13.982904 0.000000 0.000000 0.000000 1.274433 2.302870 2.386078 0.582383 -2.669064 -4.435169 -0.192026 -1.622399 8.840686 -0.016883 0.044459 -0.029153 -0.461474 0.325726 10.732749 -0.254406 -7.251083 16.373473 0.000000 0.000000 0.000000 1.143328 0.840179 7.496223 -7.277956 -12.354861 1.075981 -30.854362 -4.216744 8.325367 -155.572872 -85.573623 168.909308 0.000000 0.000000 0.000000 -2.605357 2.182600 6.828976 20.846504 -7.884963 -14.516674 5.542229 3.030251 -51.642705 -0.182096 68.088052 -4.913868 0.000000 0.000000 0.000000 
8.239968 35.886951 75.552490 179.945746 -1.763570 179.800372 -2.809773 -0.351837 11.400363 12.566425 3.537113 -17.228133 9.175522 3.276767 20.966080 0.678305 3.308274 19.573401 0.000000 0.000000 0.000000 2.891921 0.675803 9.906303 -5.711497 -1.722858 -26.048890 -5.673162 0.922768 23.266807 3.374226 8.767658 13.977488 0.000000 0.000000 0.000000 0.917052 2.531437 3.186949 1.070887 -2.950000 -4.425887 -0.273899 -1.975922 8.518314 0.012177 -0.066910 -0.030207 -0.601801 0.121208 10.347652 -1.616886 -7.198909 15.905996 0.000000 0.000000 0.000000 1.097496 0.708882 7.105798 -6.545252 -11.453350 1.168353 -25.283509 -8.525600 0.913426 -149.022433 -86.547021 160.502055 0.000000 0.000000 0.000000 -2.650152 2.090782 6.701485 20.353615 -7.675394 -13.097340 11.842432 -1.932885 -49.129882 -0.217266 65.609957 -5.219990 0.000000 0.000000 0.000000 
8.622563 35.936081 75.350212 179.957303 -1.945256 179.757465 -2.896169 -0.355387 11.791937 10.794478 2.986783 -17.872775 8.767407 3.206392 21.778087 1.659415 2.549572 18.491921 0.000000 0.000000 0.000000 2.630586 0.562144 10.212094 -4.448576 -1.713138 -25.446220 -5.941240 0.176279 22.400702 2.984677 8.297070 13.754969 0.000000 0.000000 0.000000 0.628403 2.484384 3.534589 1.559253 -3.051547 -4.513376 -0.384387 -2.110519 8.258768 0.007325 0.043010 -0.036324 -0.782962 -0.130413 10.041418 -2.926535 -7.211450 15.590216 0.000000 0.000000 0.000000 1.004575 0.367507 6.833699 -6.199134 -10.325435 1.011066 -20.301563 -11.029987 -8.353529 -123.497634 -88.147020 133.035665 0.000000 0.000000 0.000000 -2.747945 1.809109 6.549876 20.046740 -7.244957 -11.536142 18.097421 -7.130906 -44.645412 -0.179536 62.846947 -5.075242 0.000000 0.000000 0.000000 
8.928929 35.936733 75.092934 -179.975731 -2.283014 179.770333 -2.952029 -0.556910 11.993071 8.887947 1.656172 -18.121484 7.937959 2.548783 23.127338 1.514757 1.049016 17.120091 0.000000 0.000000 0.000000 2.351536 0.355393 10.258533 -3.125893 -1.594988 -24.521928 -6.358641 -0.145572 21.620069 2.779274 7.600706 13.511620 0.000000 0.000000 0.000000 0.381892 2.339100 3.545018 1.956621 -2.889951 -4.649345 -0.519809 -2.361369 8.065697 -0.007365 0.037080 -0.007299 -0.989649 -0.378406 9.685814 -4.047563 -7.250260 15.324325 0.000000 0.000000 0.000000 0.858530 0.213749 6.584860 -6.314629 -8.817345 0.731184 -16.866099 -11.880046 -17.636964 -37.269398 -87.834901 44.893857 0.000000 0.000000 0.000000 -2.896725 1.607090 6.360087 20.006399 -6.352645 -9.789863 24.230964 -11.697887 -38.782658 -0.596245 59.600224 -5.052505 0.000000 0.000000 0.000000 
9.137738 35.943733 74.821251 179.948000 -2.486096 179.810440 -3.004018 -0.618059 12.117480 7.048320 -0.543197 -18.156007 6.656864 1.297598 24.893328 0.357295 -1.055038 15.673426 0.000000 0.000000 0.000000 1.929304 0.209321 10.126921 -2.014321 -1.215144 -23.389833 -7.014019 -0.477655 21.009361 3.125736 6.892340 13.334576 0.000000 0.000000 0.000000 0.137673 2.164284 3.342257 2.130944 -2.533067 -4.874491 -0.665692 -2.556212 7.902241 -0.005579 0.062305 -0.026354 -1.145494 -0.550858 9.426840 -4.923783 -7.318452 15.255793 0.000000 0.000000 0.000000 0.711297 0.071349 6.379540 -6.799593 -7.362879 0.357888 -15.469298 -11.231626 -25.082582 -13.081360 -85.255255 18.912922 0.000000 0.000000 0.000000 -2.990603 1.476787 6.279707 20.382430 -5.255978 -8.072655 29.956257 -15.508641 -32.327832 -0.902233 55.997255 -4.636283 0.000000 0.000000 0.000000 
9.259702 35.975121 74.550774 179.832665 -2.938785 179.839468 -3.039251 -1.066128 11.962658 5.147781 -2.624449 -17.210963 6.235687 0.754895 26.315684 0.057084 -2.329308 12.830875 0.000000 0.000000 0.000000 1.663686 -0.090118 9.956875 -1.314351 -1.146645 -22.219442 -7.590750 -0.743529 20.412613 3.610590 6.187789 13.218864 0.000000 0.000000 0.000000 -0.073122 1.944444 3.046261 2.158253 -2.168830 -5.248048 -0.777274 -2.760751 7.769067 0.005452 0.031137 -0.006110 -1.288139 -0.785866 9.137165 -5.477662 -7.423008 15.313930 0.000000 0.000000 0.000000 0.557246 -0.118615 6.119876 -7.463648 -6.079272 0.287633 -16.327214 -9.321216 -29.662204 -6.842901 -83.087325 11.121727 0.000000 0.000000 0.000000 -3.058180 1.198030 6.176012 21.207075 -3.898641 -6.526763 35.511103 -18.543311 -25.969023 -1.415783 52.343524 -4.262320 0.000000 0.000000 0.000000 
9.259160 36.022343 74.250130 179.742739 -3.151019 179.929395 -2.927650 -1.135875 11.914272 3.721206 -4.763109 -16.327055 6.286589 0.388895 26.517395 0.082007 -3.031799 11.506512 0.000000 0.000000 0.000000 1.533606 -0.149473 9.791230 -1.231121 -0.941263 -21.262973 -7.878867 -1.022323 20.020818 4.276340 5.475154 13.112841 0.000000 0.000000 0.000000 -0.230142 1.863169 2.696535 2.087277 -1.755722 -5.758687 -0.807165 -2.873910 7.622933 0.030380 0.033837 0.002941 -1.346294 -0.824645 8.914081 -5.742787 -7.604465 15.587345 0.000000 0.000000 0.000000 0.464405 -0.191825 5.916636 -8.110401 -5.020297 0.083109 -19.379955 -6.226270 -30.472544 -6.105860 -82.012568 9.173149 0.000000 0.000000 0.000000 -3.106347 1.037763 6.058910 22.276081 -2.859409 -5.110185 41.059488 -21.086662 -20.677663 -2.175675 49.193570 -4.057769 0.000000 0.000000 0.000000 
9.147156 36.080105 73.946335 179.614878 -3.364739 -179.965909 -2.756865 -1.074483 11.818899 2.631372 -6.846360 -15.526447 6.368170 -0.376247 25.823569 -0.160902 -3.612712 10.987628 0.000000 0.000000 0.000000 1.599468 -0.190341 9.714225 -1.609449 -1.108998 -20.532360 -8.041406 -1.153131 19.762915 4.951534 4.947145 13.065691 0.000000 0.000000 0.000000 -0.396744 1.784980 2.336495 1.901085 -1.420369 -6.378691 -0.817729 -2.958627 7.472613 0.076563 -0.011281 -0.013374 -1.395305 -0.847495 8.769803 -5.646791 -7.925569 16.072193 0.000000 0.000000 0.000000 0.384305 -0.199640 5.695603 -8.698850 -4.174187 0.145062 -23.826000 -1.885716 -28.161881 -7.103678 -82.205124 9.342304 0.000000 0.000000 0.000000 -3.181880 0.931444 5.991676 23.445517 -2.186305 -4.026106 46.365011 -23.279711 -17.093325 -2.780059 46.905986 -3.748807 0.000000 0.000000 0.000000 
